<svg width="225" height="54" fill="none" xmlns="http://www.w3.org/2000/svg" viewBox="0 0 917.76 206.21"><defs><style>.cls-1{fill:#a3fa35;}.cls-2{fill:#B4C4D6;}</style></defs><g id="Camada_2" data-name="Camada 2"><g id="Camada_1_cópia" data-name="Camada 1 cópia"><path class="cls-1" d="M93.09,150l4.29-11.89,3-13.66c-.09-.22-.17-.43-.28-.64a179.69,179.69,0,0,1-9.85-24.53,5,5,0,0,0-.65-1.09L84.8,119.34l-16.27-51a7.13,7.13,0,0,0-1.6,0c-8.75.09-13.38,5.93-16,15.08L40.3,120.5l-12.82-52-16.65.16,2.5,10.47,18,75.64,15.53-.15,15-55.74L78.23,154.3l13.25-.13C92,152.79,92.58,151.4,93.09,150Z"/><polygon class="cls-1" points="17.37 25.56 0 25.73 30.75 154.07 30.42 108.15 34.9 99.46 33.24 91.81 17.37 25.56"/><path class="cls-1" d="M226.47,136.1c.13-3,.31-6,.44-8.95.2-4.57.37-9.15.57-13.72,0-.73.18-1.45.21-2.18.13-3.44.21-6.88.35-10.32.12-3.18.31-6.36.44-9.55s.19-6.36.32-9.54.31-6.23.43-9.35.12-6.23.27-9.34c.16-3.45.45-6.88.66-10.32.06-1,.1-2,.13-3-.11-.07-.19-.13-.18-.15.06-.31.49-7.29.73-11.28q-6.78,4.41-13.63,8.71a2.86,2.86,0,0,0-1.63,2.31c-.19,3.91-.4,7.82-.58,11.74-.15,3.24-.26,6.5-.42,9.74-.2,4.18-.45,8.35-.65,12.53-.24,5-.44,10.08-.67,15.12-.16,3.58-.33,7.15-.51,10.73-.15,2.9-.31,5.79-.5,9.1a9.93,9.93,0,0,1-.88-1.25c-.85-1.87-1.69-3.75-2.5-5.64q-6.39-14.88-12.75-29.78c-1.2-2.8-2.37-5.6-3.59-8.39a5.73,5.73,0,0,0-4-3.54,6.46,6.46,0,0,0-8,6.51c.13,2.78,0,5.57-.17,8.35-.17,3.45-.51,6.88-.69,10.33-.22,4.17-.35,8.35-.55,12.52-.09,2-.25,4-.4,6-.59,7.38-3,14-8.31,19.34-7,7-15.47,9.8-25.2,8.82a34.28,34.28,0,0,1-8.86-2.22,29,29,0,0,1-10.61-6.81c-5.13-5.27-8.56-11.45-9.36-18.88a53.67,53.67,0,0,1-.16-5.53c0-3.12.06-6.23.11-9.35.08-4.11.16-8.22.27-12.34.07-3,.26-6,.29-8.94a63,63,0,0,0-.18-7.53c-.38-3.53-2.62-6.06-5.73-6.57a8.48,8.48,0,0,0-8.58,3.4c-1.35,2-1.43,4.25-1.59,6.49s-.22,4.63-.31,7-.15,4.77-.28,7.15a2.75,2.75,0,0,0,1.1,2.43c.42.33.76.76,1.2,1a2.67,2.67,0,0,1,1.22,2.56c0,.93,0,1.86-.08,2.79-.14,3.51-.32,7-.42,10.53-.07,2.65-.19,5.3,0,7.94a37.19,37.19,0,0,0,3.49,13,43.8,43.8,0,0,0,18.93,20.81A42.72,42.72,0,0,0,137,152.76c1.65.39,1.64.46,1.53,2.17-.13,2.06-.21,4.11-.28,6.17-.13,4.05-.23,8.1-.36,12.15q-.23,6.85-.5,13.72c-.08,2-.22,4-.33,6,0,.81-.34,1.45-1.27,1.48-1.19.05-2.38.07-3.57.07-2.65,0-5.3-.07-7.95-.07s-5,.11-7.54.12c-3,0-6.1-.11-9.14,0a5.29,5.29,0,0,0-3.78,1.5,6,6,0,0,0,1.06,9.42,4.09,4.09,0,0,0,2,.75c3.91.07,7.82.05,11.73,0,2.58,0,5.15-.13,7.73-.15,2.78,0,5.57.05,8.35,0,4.18,0,8.35-.1,12.53-.12,2.65,0,5.3.07,7.95.05,4.51,0,9-.11,13.52-.14,2.91,0,5.83,0,8.74,0a5.74,5.74,0,0,0,5.74-5.5,5.82,5.82,0,0,0-5.16-6.07,39.94,39.94,0,0,0-5.36-.13c-2.45,0-4.89.19-7.33.23-2.65,0-5.3,0-7.94,0-2.37,0-4.73-.1-7.06-.15-.46-2.31.52-38.11,1.32-40.25a10,10,0,0,1,1.3-.23,38.2,38.2,0,0,0,9.38-1.51,40.52,40.52,0,0,0,22.18-15.55,38.87,38.87,0,0,0,5.43-10.54,38.08,38.08,0,0,0,2-9.73,22.08,22.08,0,0,1,.63-3.16,68.05,68.05,0,0,1,4.05,7.6q6.42,13.71,12.8,27.42c.56,1.2,1.11,2.42,1.77,3.56a2.1,2.1,0,0,0,1.85,1.32c3.11,0,6.23.07,9.35,0a3.25,3.25,0,0,0,3.21-2.74,27.7,27.7,0,0,0,.5-3.95C226.27,143,226.33,139.55,226.47,136.1Z"/><path class="cls-1" d="M132.64,85.22a13.69,13.69,0,0,0,3.1,8,14.61,14.61,0,0,0,7.94,5,16.34,16.34,0,0,0,9.79-.2c5.48-2,9.48-5.66,10.65-11.62a70.43,70.43,0,0,0,.9-8.71c.24-3.44.38-6.89.49-10.34.19-5.44.29-10.87.47-16.31.1-3.11.37-6.23.4-9.35,0-4.69.78-9.42-.24-14.08-1.6-7.28-7.13-13.68-14.28-15-5.5-1-10.56.29-14.51,4.51A10.12,10.12,0,0,0,135,21c-.59,2-1.45,2.71-3.64,2.66a60,60,0,0,1-7.71-.49c-2.11-.32-2.35-.69-2.05-2.77A18.82,18.82,0,0,1,126,11.12,29.41,29.41,0,0,1,144,.39a30.4,30.4,0,0,1,13.57,1,27.07,27.07,0,0,1,10.83,5.71A32.54,32.54,0,0,1,179.27,25.8c.86,4.34.59,8.7.45,13.07-.12,3.31-.19,6.63-.29,9.94,0,1.12-.14,2.25-.2,3.38-.14,3.11-.3,6.22-.42,9.33-.1,2.72-.14,5.44-.22,8.15-.06,2.06-.12,4.12-.21,6.17-.12,2.65-.13,5.32-.46,7.94a37.36,37.36,0,0,1-2.33,9.86,28.16,28.16,0,0,1-9.65,12.1,27.21,27.21,0,0,1-12.57,5.11,34.71,34.71,0,0,1-12.84-.59,29.4,29.4,0,0,1-10-4.77,28.19,28.19,0,0,1-10-13.33,24.32,24.32,0,0,1-1.28-7.62c-.06-1.45.11-2.92,0-4.37-.23-3,1-5.24,5.22-5.07,5.35.22,10.7.38,16.06.16a20.37,20.37,0,0,1,4,.3c3.57.55,4.48,4.52,2.94,7.15A4.82,4.82,0,0,1,143,85.22l-9.14-.06C133.57,85.16,133.25,85.19,132.64,85.22Z"/><path class="cls-1" d="M123.82,54.09c-1.72-.4-3.33-.77-4-2.63a6.69,6.69,0,0,1,.87-5.89,3,3,0,0,1,2.61-1.23c2.3,0,4.61,0,6.92,0,2.7,0,5.41,0,8.11,0a64.07,64.07,0,0,1,6.93.36,4.15,4.15,0,0,1,3.7,4.63c-.32,3.18-1.93,4.86-4.68,4.85q-6.47,0-12.92-.06C128.84,54.15,126.33,54.11,123.82,54.09Z"/><path class="cls-1" d="M123.54,38.54a5,5,0,0,1-3.82-5.1,4.45,4.45,0,0,1,4.14-4.51c2.78-.07,5.56-.06,8.33-.08h7.54c1.52,0,3-.07,4.56-.05a4.79,4.79,0,0,1,4.56,5.38c-.1.53-.16,1.06-.3,1.57a3.32,3.32,0,0,1-3.38,2.8c-2.84.1-5.69,0-8.54.06-3.7,0-7.41.1-11.11.13C124.86,38.73,124.2,38.6,123.54,38.54Z"/><path class="cls-1" d="M148.27,66.19a4.1,4.1,0,0,1-4,3.31c-3,0-6.08,0-9.12,0-2.45,0-4.89,0-7.34,0a36.79,36.79,0,0,1-5.15-.27,3.77,3.77,0,0,1-2.28-1.39,5.54,5.54,0,0,1,.21-7,4.2,4.2,0,0,1,3.62-1.26c3.57,0,7.13.21,10.7.27,2.64,0,5.28,0,7.92,0,2.79-.06,4.35.87,5.18,3.4A12.66,12.66,0,0,1,148.27,66.19Z"/><path class="cls-1" d="M216.16,42.53c.12-4.25.22-8.21.34-12.18.05-1.65.09-3.31.22-5,.24-3.19,1.54-4.89,4.65-5.63a13.15,13.15,0,0,1,4.51-.22,5.84,5.84,0,0,1,5.1,5.11,22,22,0,0,1-.36,8.09,2.78,2.78,0,0,1-1.06,1.55c-4.05,2.66-8.14,5.24-12.23,7.83A7.27,7.27,0,0,1,216.16,42.53Z"/><path class="cls-2" d="M262.43,41.8h26.76L309,125.66l17.65-59.48c4.36-14.67,11.89-24,26-24a11,11,0,0,1,2.57,0l25.38,82.27L395.06,63c3.18-13.68,9.72-22.4,21.61-22.4a36.24,36.24,0,0,1,9.52,1.59L394.67,180.58H369.49L344.11,91.17l-25,89.41h-25Z"/><path class="cls-2" d="M451.89,79.63A11.06,11.06,0,0,1,463.2,90.94c0,6.45-5.3,8.6-10.74,10.31s-7.44,2.87-8.45,5.3a52.46,52.46,0,0,1-2.29-13.75C441.72,85.5,444.59,79.63,451.89,79.63Zm-9,41.81a15.27,15.27,0,0,1,15.46-15.32,22.22,22.22,0,0,1,3.15.29v74.17H442.87Z"/><path class="cls-2" d="M480.38,95c0-8.16,6.59-14.89,15.47-14.89a24.58,24.58,0,0,1,3.15.29V180.58H480.38Z"/><path class="cls-2" d="M516.18,95c0-8.16,6.59-14.89,15.47-14.89a24.58,24.58,0,0,1,3.15.29V180.58H516.18Z"/><path class="cls-2" d="M562.15,79.63a11.06,11.06,0,0,1,11.31,11.31c0,6.45-5.3,8.6-10.74,10.31s-7.44,2.87-8.45,5.3A52.05,52.05,0,0,1,552,92.8C552,85.5,554.85,79.63,562.15,79.63Zm-9,41.81a15.27,15.27,0,0,1,15.46-15.32,22.36,22.36,0,0,1,3.15.29v74.17H553.13Z"/><path class="cls-2" d="M588.15,180.19V85.86c0-14.39,6.71-20.11,20.6-20.11l48.88,72.75V65.75H679.7V180.19H658.94L610.22,107v73.24Z"/><path class="cls-2" d="M707.47,130.71c7,0,13.7,3.31,14.52,10.39a8.74,8.74,0,0,0-4.6-1.29,9.76,9.76,0,0,0-9.8,10.15c0,11.33,7.67,16.88,16.06,16.88s17-5.07,17-17c0-10.74-7.08-17.59-16.18-17.71a14.84,14.84,0,0,0-3.89.47,15.9,15.9,0,0,0-12.28-5.31,17.44,17.44,0,0,0-9.09,2.36c6.37-7.67,15-12,24.91-12,18.77,0,32.12,15.82,32.12,32.82-.12,17.71-14.65,30.94-31.77,30.94A32.53,32.53,0,0,1,692,148.9C692,139.81,695.78,130.71,707.47,130.71Z"/><path class="cls-2" d="M765.09,119.14h7.56v-3.3c0-7.56,6.14-12.16,13-12.16a8.16,8.16,0,0,1,2.36.11v15.35h13.69c0,6.14-1.89,12.75-10.39,12.75H788V163.3a4.14,4.14,0,0,0,4.37,4c2.71,0,5.66-.71,6.84-2.6a11,11,0,0,1,.71,3.78c0,6.49-5.07,12.28-13.81,12.28-6.61,0-13.46-4.37-13.46-13.23V131.89h-7.56Z"/><path class="cls-2" d="M843.14,118.08c15.46,0,25.62,8.27,25.62,20.19s-10.16,21-23.62,21c-10,0-16.76-5-16.76-12.4a13.57,13.57,0,0,1,1.06-5.19,19.51,19.51,0,0,0,12.28,5.07c8,0,13.7-2.83,13.7-7.79,0-3.19-3.31-6.49-11.1-6.49-11.93,0-19,6.25-19,17,0,10.51,6.85,17.12,16.41,17.12,5,0,10.39-.71,14.29-4.49l8.85,10.16c-5.67,6.14-13.22,9.21-22.43,9.21-19.13,0-32.47-13.35-32.47-31.77C810,130.83,823.89,118.08,843.14,118.08Z"/><path class="cls-2" d="M874.66,170.86l9.45-10.16c4.25,5,9.09,6.85,12.75,6.85,3.89,0,6.61-1.89,6.61-4.48,0-8.74-26.57-9.92-26.57-28,0-10.86,9.45-17.35,20.19-17.35,7.33,0,16.18,3,16.18,11.1a9.75,9.75,0,0,1-5.9,9.09c-1.77-4.49-6.62-6.38-10.28-6.38-2.24,0-5.66.71-5.66,3.78,0,7.79,26.33,7.08,26.33,27.16,0,12-10.39,18.89-21.61,18.89A26.8,26.8,0,0,1,874.66,170.86Z"/></g></g></svg>